<?xml version="1.0" encoding="iso-8859-1"?>
<!-- Generator: Adobe Illustrator 19.0.0, SVG Export Plug-In . SVG Version: 6.00 Build 0)  -->
<svg version="1.1" id="Capa_1" xmlns="http://www.w3.org/2000/svg" xmlns:xlink="http://www.w3.org/1999/xlink" x="0px" y="0px"
	 viewBox="0 0 512 512" style="enable-background:new 0 0 512 512;" xml:space="preserve">
<circle style="fill:#5841B6;" cx="256" cy="256" r="256"/>
<path style="fill:#311C61;" d="M512,256c0-0.392-0.013-0.78-0.015-1.171L311.154,53.998L53.998,311.154l200.831,200.831
	c0.391,0.002,0.78,0.015,1.171,0.015C397.385,512,512,397.385,512,256z"/>
<path style="fill:#FFEE93;" d="M371.893,140.105c-7.005-7.005-7.005-18.363,0-25.368l-18.504-18.504
	c-7.005,7.005-18.363,7.005-25.368,0s-7.005-18.363,0-25.368l-16.867-16.867L53.998,311.154l16.867,16.867
	c7.005-7.005,18.363-7.005,25.368,0s7.005,18.363,0,25.368l18.504,18.504c7.005-7.005,18.363-7.005,25.368,0
	c7.005,7.005,7.005,18.363,0,25.368l18.504,18.504c7.005-7.005,18.363-7.005,25.368,0c7.005,7.005,7.005,18.363,0,25.368
	L200.844,458L458,200.844l-16.867-16.867c-7.005,7.005-18.363,7.005-25.368,0s-7.005-18.363,0-25.368l-18.504-18.504
	C390.256,147.11,378.898,147.11,371.893,140.105z"/>
<path style="fill:#FFE131;" d="M458.006,200.843L200.843,458.006l-16.871-16.871c7.01-7.01,7.01-18.358,0-25.368
	c-7.004-7.004-18.358-7.01-25.369,0l-18.501-18.501c7.01-7.01,7.004-18.365,0-25.369l231.794-231.794
	c7.004,7.004,18.358,7.01,25.369,0l18.501,18.501c-7.01,7.01-7.004,18.365,0,25.369c7.01,7.01,18.358,7.01,25.368,0L458.006,200.843
	z"/>
<path style="fill:#FFAA20;" d="M389.094,194.748l-71.845-71.845c-14.338,14.338-37.585,14.338-51.923,0L122.904,265.327
	c14.338,14.338,14.338,37.585,0,51.923l71.845,71.845c14.338-14.338,37.585-14.338,51.923,0l142.423-142.423
	C374.756,232.333,374.756,209.087,389.094,194.748z"/>
<path style="fill:#E67500;" d="M389.095,246.677L246.677,389.095c-14.341-14.341-37.589-14.335-51.924,0l-35.925-35.925
	L353.17,158.828l35.925,35.925C374.76,209.088,374.754,232.335,389.095,246.677z"/>
<path style="fill:#FFFFFF;" d="M170.187,280.3l63.157,29.889l-30.063-62.984l12.562-12.562l37.513,85.509l-10.05,10.05
	l-85.683-37.34L170.187,280.3z"/>
<path style="fill:#BDFEFB;" d="M234.599,277.398l-11.443,11.443l10.188,21.345l-21.406-10.127l-11.477,11.477l42.847,18.665
	l10.052-10.052L234.599,277.398z"/>
<path style="fill:#FFFFFF;" d="M283.939,289.57l-61.511-61.511l11.955-11.955l61.511,61.511L283.939,289.57z"/>
<path style="fill:#BDFEFB;" d="M265.137,246.861l-11.955,11.955l30.756,30.756l11.955-11.955L265.137,246.861z"/>
<path style="fill:#FFFFFF;" d="M308.716,264.793l-61.511-61.511l26.077-26.077c2.829-2.829,6.036-4.851,9.616-6.064
	c3.581-1.212,7.206-1.718,10.873-1.516c3.668,0.203,7.219,1.041,10.656,2.513c3.437,1.474,6.398,3.451,8.88,5.934
	c2.599,2.599,4.663,5.59,6.194,8.967c1.531,3.381,2.41,6.86,2.642,10.44c0.23,3.582-0.26,7.133-1.472,10.656
	c-1.213,3.525-3.235,6.701-6.065,9.53l-14.555,14.555l20.619,20.619L308.716,264.793z M289.57,221.735l13.862-13.862
	c2.194-2.195,3.133-4.923,2.816-8.187c-0.317-3.262-2.006-6.425-5.068-9.487c-1.56-1.56-3.191-2.727-4.895-3.509
	c-1.705-0.778-3.366-1.226-4.982-1.342c-1.618-0.115-3.148,0.116-4.591,0.693c-1.445,0.578-2.686,1.386-3.725,2.425l-13.342,13.342
	L289.57,221.735z"/>
<path style="fill:#BDFEFB;" d="M300.053,232.213l14.553-14.553c2.83-2.83,4.855-6.001,6.063-9.527
	c1.214-3.519,1.705-7.079,1.473-10.652c-0.143-2.203-0.525-4.358-1.152-6.472l-43.031,43.031l30.756,30.756l11.961-11.961
	L300.053,232.213z"/>
<g>
</g>
<g>
</g>
<g>
</g>
<g>
</g>
<g>
</g>
<g>
</g>
<g>
</g>
<g>
</g>
<g>
</g>
<g>
</g>
<g>
</g>
<g>
</g>
<g>
</g>
<g>
</g>
<g>
</g>
</svg>
